<svg width="189" height="100" viewBox="0 0 189 100" fill="none" xmlns="http://www.w3.org/2000/svg">
<path d="M39.8489 73.9838C32.5297 73.9838 26.837 79.6748 26.837 86.9918C26.837 94.3089 32.5297 100 39.8489 100C47.1681 100 52.8609 94.3089 52.8609 86.9918C52.8609 79.6748 47.1681 73.9838 39.8489 73.9838ZM117.107 0H110.601V15.8536H134.999L117.107 0ZM0.81317 89.4309H17.0781C17.0781 89.4309 17.8913 65.0406 41.4754 65.0406C58.9601 65.0406 61.8065 89.4309 61.8065 89.4309H102.469V0H0L0.81317 89.4309ZM154.516 73.9838C147.197 73.9838 141.504 79.6748 141.504 86.9918C141.504 94.3089 147.197 100 154.516 100C161.836 100 167.528 94.3089 167.528 86.9918C167.528 79.6748 161.429 73.9838 154.516 73.9838ZM139.065 20.3252H110.601V89.4309H134.999C134.999 89.4309 131.746 69.1057 155.33 69.1057C173.221 69.1057 172.814 89.4309 172.814 89.4309H187.859L188.673 58.9431L139.065 20.3252ZM134.999 73.1707H118.734V65.0406H134.999V73.1707ZM133.372 58.5365L117.107 48.7805V26.0162H133.372L175.661 58.5365H133.372Z" fill="white" fill-opacity="0.4"/>
</svg>
