<svg width="12" height="20" viewBox="0 0 12 20" fill="none" xmlns="http://www.w3.org/2000/svg">
<path d="M10.9993 0.00416133L8.4058 0C5.49206 0 3.60908 1.9319 3.60908 4.92203V7.19141H1.0014C0.77607 7.19141 0.593597 7.37409 0.593597 7.59943V10.8875C0.593597 11.1128 0.776278 11.2953 1.0014 11.2953H3.60908V19.5922C3.60908 19.8175 3.79155 20 4.01688 20H7.41916C7.64449 20 7.82696 19.8173 7.82696 19.5922V11.2953H10.8759C11.1013 11.2953 11.2837 11.1128 11.2837 10.8875L11.285 7.59943C11.285 7.49123 11.2419 7.38762 11.1656 7.31105C11.0892 7.23448 10.9852 7.19141 10.877 7.19141H7.82696V5.26763C7.82696 4.34298 8.0473 3.87358 9.25179 3.87358L10.9989 3.87295C11.224 3.87295 11.4065 3.69027 11.4065 3.46514V0.411972C11.4065 0.187052 11.2242 0.00457747 10.9993 0.00416133Z" fill="#F13C6E"/>
</svg>
