<svg width="29" height="16" viewBox="0 0 29 16" fill="none" xmlns="http://www.w3.org/2000/svg">
<path d="M27.8947 14.4498C27.8607 14.3766 27.8291 14.3159 27.7997 14.2672C27.3131 13.3909 26.3833 12.3154 25.0109 11.0402L24.9819 11.011L24.9674 10.9966L24.9527 10.982H24.9379C24.3151 10.3882 23.9206 9.98892 23.7554 9.78451C23.4532 9.39512 23.3855 9.00098 23.5507 8.60162C23.6674 8.2999 24.1057 7.66268 24.8648 6.68912C25.264 6.17316 25.5802 5.75964 25.8137 5.44809C27.4978 3.20916 28.228 1.77845 28.004 1.1554L27.917 1.0098C27.8585 0.922148 27.7077 0.841959 27.4646 0.768828C27.221 0.695851 26.9096 0.683782 26.5299 0.732417L22.3249 0.761464C22.2567 0.737326 22.1595 0.739576 22.0328 0.768828C21.9062 0.798081 21.8429 0.812759 21.8429 0.812759L21.7697 0.849324L21.7116 0.893253C21.6629 0.922301 21.6094 0.973391 21.5509 1.04642C21.4928 1.11919 21.4441 1.2046 21.4053 1.30192C20.9474 2.47974 20.4269 3.57481 19.8428 4.58709C19.4826 5.1907 19.1518 5.71382 18.8497 6.15675C18.548 6.59952 18.2949 6.92575 18.0907 7.13486C17.8861 7.34418 17.7015 7.51187 17.5357 7.63854C17.3702 7.76527 17.2438 7.81882 17.1563 7.79923C17.0686 7.77964 16.986 7.76021 16.9078 7.74077C16.7716 7.65312 16.6621 7.53391 16.5795 7.38305C16.4965 7.23218 16.4407 7.0423 16.4115 6.81354C16.3824 6.58464 16.3652 6.38775 16.3603 6.22221C16.3558 6.05687 16.3579 5.823 16.3678 5.52127C16.3779 5.21939 16.3824 5.01513 16.3824 4.90805C16.3824 4.5381 16.3896 4.13659 16.4041 3.70343C16.4188 3.27027 16.4308 2.92706 16.4407 2.67422C16.4507 2.42113 16.4553 2.15336 16.4553 1.87106C16.4553 1.58877 16.4381 1.36738 16.4041 1.20669C16.3706 1.04621 16.3191 0.890441 16.2512 0.739423C16.1829 0.588558 16.083 0.471855 15.9519 0.389007C15.8205 0.306262 15.6572 0.240597 15.4628 0.191809C14.9468 0.0750551 14.2898 0.0118965 13.4915 0.00207753C11.681 -0.0173559 10.5177 0.0995513 10.0018 0.352646C9.79741 0.459581 9.61244 0.60569 9.44705 0.790512C9.27179 1.00474 9.24735 1.12165 9.37387 1.14088C9.958 1.22838 10.3715 1.4377 10.6149 1.76863L10.7026 1.94399C10.7708 2.07051 10.8389 2.29451 10.9071 2.61567C10.9752 2.93683 11.0191 3.29211 11.0384 3.68129C11.087 4.39199 11.087 5.00036 11.0384 5.50644C10.9897 6.01273 10.9437 6.40687 10.8997 6.68917C10.8558 6.97147 10.7902 7.20022 10.7026 7.37538C10.6149 7.55058 10.5565 7.65767 10.5273 7.69654C10.4981 7.73541 10.4737 7.7599 10.4544 7.76952C10.3279 7.818 10.1963 7.8427 10.0601 7.8427C9.92373 7.8427 9.75834 7.77448 9.5637 7.63814C9.36911 7.5018 9.16716 7.31452 8.95784 7.076C8.74852 6.83743 8.51246 6.50404 8.24954 6.07579C7.98683 5.64754 7.71425 5.1414 7.43196 4.55738L7.1984 4.13383C7.05239 3.86135 6.85294 3.4646 6.59985 2.94394C6.3466 2.42307 6.12276 1.91924 5.92817 1.43253C5.85038 1.22812 5.73353 1.0725 5.5778 0.965413L5.50472 0.921483C5.45614 0.882616 5.37815 0.841346 5.27116 0.797365C5.16402 0.753435 5.05223 0.721932 4.93532 0.70255L0.934646 0.731598C0.525828 0.731598 0.248441 0.824213 0.102383 1.00919L0.0439298 1.09669C0.0147285 1.14543 0 1.22326 0 1.3304C0 1.43749 0.0292013 1.56892 0.087655 1.72454C0.671681 3.09716 1.3068 4.42093 1.993 5.69607C2.6792 6.97121 3.2755 7.99837 3.78154 8.77663C4.28768 9.55545 4.80359 10.2905 5.32926 10.9814C5.85493 11.6726 6.20289 12.1155 6.37314 12.3101C6.54359 12.505 6.67748 12.6508 6.7748 12.7481L7.13989 13.0985C7.3735 13.3321 7.71655 13.612 8.1692 13.938C8.62195 14.2642 9.12318 14.5854 9.67314 14.902C10.2232 15.2181 10.8631 15.476 11.5933 15.6755C12.3233 15.8752 13.0338 15.9554 13.725 15.9167H15.4042C15.7447 15.8873 16.0027 15.7802 16.1781 15.5954L16.2362 15.5222C16.2752 15.4641 16.3118 15.3739 16.3456 15.2524C16.3797 15.1307 16.3967 14.9967 16.3967 14.8509C16.3867 14.4324 16.4186 14.0553 16.4914 13.7195C16.5642 13.3838 16.6471 13.1307 16.7399 12.9602C16.8326 12.7899 16.9373 12.6462 17.0537 12.5297C17.1704 12.413 17.2536 12.3423 17.3023 12.3179C17.3508 12.2934 17.3895 12.2768 17.4187 12.2668C17.6524 12.189 17.9273 12.2644 18.2439 12.4933C18.5604 12.7221 18.8571 13.0045 19.1347 13.3402C19.4122 13.6762 19.7455 14.0532 20.1348 14.4716C20.5243 14.8903 20.8649 15.2015 21.1568 15.4062L21.4487 15.5814C21.6437 15.6983 21.8968 15.8054 22.2083 15.9027C22.5193 16 22.7918 16.0243 23.0257 15.9757L26.7635 15.9174C27.1332 15.9174 27.4208 15.8562 27.6249 15.7347C27.8293 15.6131 27.9508 15.479 27.99 15.3332C28.029 15.1873 28.0311 15.0217 27.9974 14.8365C27.9628 14.6519 27.9286 14.5227 27.8947 14.4498Z" fill="#F13C6E"/>
</svg>
